# xmcd
#
# Track frame offsets:
#	225
#	15268
#	32285
#
# Disc length: 620 seconds
#
# Revision: 0
# Processed by: cddbd v1.5.2PL0 Copyright (c) Steve Scherf et al.
# Submitted via: audiograbber 1.83.01
#
DISCID=0f026903
DTITLE=Birgit and Bianca - Der Grund für Träume
DYEAR=2000
DGENRE=Volksmusik
TTITLE0=Der Grund für Träume
TTITLE1=Wenn der Tag erwacht in meinen Bergen
TTITLE2=Jeder Mensch hat das Recht auf Glück
EXTD=http://www.hit-radio24.de 
EXTT0=
EXTT1=
EXTT2=
PLAYORDER=
